<?xml version="1.0" encoding="utf-8"?>
<!-- Generator: Adobe Illustrator 18.1.0, SVG Export Plug-In . SVG Version: 6.00 Build 0)  -->
<svg version="1.1" id="Icon" xmlns="http://www.w3.org/2000/svg" xmlns:xlink="http://www.w3.org/1999/xlink" x="0px" y="0px"
	 viewBox="3177.3 6184.1 792 612" enable-background="new 3177.3 6184.1 792 612" xml:space="preserve">
<g>
	<path fill="#231F20" d="M3627.7,6333.9c-11.5,0-23.6,9.2-30,23c-4.7,10.2-5.7,21.5-2.4,30.3c2.2,6,6.1,10.5,11.3,12.9
		c2.7,1.3,5.7,1.9,8.8,1.9c11.6,0,23.6-9.2,30-22.9c8.3-18,4.4-37-8.9-43.2C3633.8,6334.6,3630.8,6333.9,3627.7,6333.9z"/>
	<path fill="#231F20" d="M3720.3,6427.5c-28.2,2.3-56.6,2.8-85.2-1.2c-0.9-0.1-5.3-0.9-6.1-1c-2.2-0.4-4.4-0.9-6.5-1.4
		c-5-1.1-10-2.5-14.9-4.1c-1.9-0.6-3.8-1.3-5.8-2.1c-0.9-0.4-1.8-0.8-2.7-1.2c-3.7-1.7-7.2-3.6-10.7-5.7c-0.5-0.3-1-0.7-1.5-1
		c-1.4-1-2.7-2-4-3.1c-1.1-0.9-2.1-1.8-3.1-2.7c-0.6-0.6-1.2-1.3-1.8-2c-1-1.1-1.9-2.4-2.9-3.6c-0.3-0.4-0.9-1.2-1.3-2
		c-1.4-2.3-2.6-4.8-3.7-7.3c-0.3-0.8-0.6-1.6-0.9-2.4c-0.3-0.8-0.7-2.2-0.9-2.8c-0.8-3-1.4-6.1-1.8-9.1c-0.2-1.4-0.3-2.9-0.4-4.3
		c0-0.6-0.1-1.1-0.1-1.7c-0.1-3.1,0.1-6.2,0.3-9.4c0.5-6.2,1.5-12.4,3-18.5c0.7-3,1.5-5.9,2.3-8.8c0.1-0.4,0.2-0.6,0.3-0.9
		c0.1-0.2,0.1-0.4,0.3-0.9c0.6-1.7,1.1-3.4,1.7-5c4.1-11.5,9.2-22.5,15-33.3c5.1-9.6,10.7-19,16.9-28c2.4,2.7,5.1,5.1,8.3,7.1
		c18.2,11.5,42.3,6.2,53.8-12c11.5-18.2,6.2-42.3-12-53.9c-18.2-11.5-42.3-6.1-53.8,12c-2.9,4.6-4.8,9.6-5.6,14.7
		c-5.5-0.9-11,0.8-14.8,5.7c-22.5,29.2-41,65.3-47.3,101.7c-4.7,27.3,0.6,56.5,20.2,77c4.1,4.3,8.5,8.1,13.2,11.6
		c-0.1,0.5-0.1,1-0.1,1.5c-0.2,5.8-0.9,11.6-1.7,17.3c-0.9,6.8-2.1,13.5-3.4,20.2c-0.4,2-0.8,3.9-1.2,5.9c-0.1,0.7-0.9,4-1,4.7
		c-1.1,4.7-2.3,9.3-3.5,13.9c-14.6,54.3-39.1,105.8-70.3,152.6c-22.2,33.3-47.8,64.3-76.1,92.7c-5.3,5.3-8.4,13.6-0.9,18.9
		c6.8,4.7,18.6,3.4,24.4-2.5c82.1-82.4,147.8-188,165.8-304.5c0.2-1.2,0.4-2.4,0.5-3.6c23.6,8.5,49.7,11.3,74.1,12.1
		c19.8,0.6,39.8-0.3,59.5-1.9c8.3-0.7,11.9-9.4,8.5-16.3C3738.4,6430.8,3729.1,6426.8,3720.3,6427.5z"/>
	<path fill="#231F20" d="M3642.6,6540.4c-11.8-0.1-23.7,2.4-34.8,6.2c-6.9,2.4-14,5-20.5,8.4c-7.6,4-6.3,13.4-1.2,18.9
		c5.8,6.1,16.2,9.2,24,5.2c2.6-1.3,8.3-3.9,10.5-4.7c0.5-0.2,1.1-0.4,1.6-0.6c1.1-0.4,2.1-0.7,3.2-1.1c2.2-0.7,4.5-1.4,6.8-2
		c2.4-0.6,4.9-1.2,7.3-1.7c1.3-0.2,2.5-0.4,3.8-0.6c4.4-0.7,5.3-0.6,7.9-0.5c1,0,2.5,0.4,3.6,0.6c0.8,0.2,2.5,0.6,3,0.9
		c3.2,1.6,5.2,4.6,5.9,6.9c1,3.4,1.8,6.5,2.2,10.1c0.1,0.8,0.1,1.1,0.1,1.2c0.1,0.7,0.1,1.4,0.2,2c0.1,2.2,0.2,4.5,0.2,6.7
		c-0.3,31.6-12,63-23.3,92.1c-6.3,16.2,26.1,30,32.4,13.9c11.6-29.7,22.8-61.4,24.7-93.5c1.1-18-1.8-37.2-14.5-51.1
		C3674,6545,3659,6540.6,3642.6,6540.4z"/>
	<path fill="#231F20" d="M3795.3,6216.5c-31,0-62,0-93,0c-5.8,0-9.7,5.7-5.1,10.5c19.3,20.2,11.5,50.2,8.4,74.6
		c-1.1,8.5,16.1,14.1,17.4,4.5c1.5-11.3,4-22.1,4.2-33.6c0.3-14.2-1.9-29.1-8.9-41.4c21,0,41.9,0,62.9,0c-11.9,21.7-13.6,49-7,72.4
		c2.3,8.1,19.9,10.8,17.1,0.8c-5.1-18.3-4.9-37.1,1.8-54.9c2.6-7,7.4-15.8,11-20.1C3808.9,6223.5,3801.2,6216.5,3795.3,6216.5z"/>
</g>
</svg>
