<?xml version="1.0" encoding="utf-8"?>
<!-- Generator: Adobe Illustrator 18.1.0, SVG Export Plug-In . SVG Version: 6.00 Build 0)  -->
<svg version="1.1" id="Icon" xmlns="http://www.w3.org/2000/svg" xmlns:xlink="http://www.w3.org/1999/xlink" x="0px" y="0px"
	 viewBox="2117.7 4236.4 792 612" enable-background="new 2117.7 4236.4 792 612" xml:space="preserve">
<g>
	<path fill="#231F20" d="M2877.6,4733.5c-157.7-70.3-321-178.5-423.7-321c-8.4-11.7-43.6-23.6-48.3-1.8
		c-15.6,72.3-82.3,132.5-139.8,175c-25.1,18.5,17.2,49.4,37.5,34.4c51.7-38.2,110.2-89.2,139.1-150.1
		c110.8,132.3,268.1,232.7,422,301.3C2895.4,4785.1,2908,4747.1,2877.6,4733.5z"/>
	<path fill="#231F20" d="M2507.3,4418.7c55.5,12.7,109.6,38.7,155.3,72.3c21.8,16,65.1-3.6,36.7-24.4
		c-53.1-39.1-114.8-71.1-179.5-85.9C2487.4,4373.2,2474.1,4411,2507.3,4418.7z"/>
	<path fill="#231F20" d="M2573,4632.9c-42.4-5.1-92.9,3-124.1,34.2c-36.6,36.5-31.8,95.8-13.3,140.3c10.3,24.8,62.3,10.1,52.3-14
		c-11.6-28-22.5-71.3-4-98.4c14.6-21.3,48.1-24.4,71.7-21.5C2582.9,4676.7,2608.2,4637.2,2573,4632.9z"/>
	<path fill="#231F20" d="M2192.2,4565.5c-19.7,0-35.8,16-35.8,35.8c0,19.7,16.1,35.8,35.8,35.8c19.7,0,35.8-16.1,35.8-35.8
		C2227.9,4581.6,2211.9,4565.5,2192.2,4565.5z"/>
	<path fill="#231F20" d="M2416.2,4372.4c6.1-0.1,12.2-2.1,17.5-5.9c13.1-9.1,20.9-27.4,20.4-47.6c-0.7-29.5-18.3-52.2-40.2-51.8
		c-6.1,0.1-12.1,2.2-17.4,5.9c-13,9.1-20.9,27.4-20.4,47.6c0.3,13.4,4.2,26,11,35.5C2394.6,4366.8,2405.2,4372.7,2416.2,4372.4z"/>
</g>
</svg>
