<?xml version="1.0" encoding="utf-8"?>
<!-- Generator: Adobe Illustrator 18.1.0, SVG Export Plug-In . SVG Version: 6.00 Build 0)  -->
<svg version="1.1" id="Icon" xmlns="http://www.w3.org/2000/svg" xmlns:xlink="http://www.w3.org/1999/xlink" x="0px" y="0px"
	 viewBox="0 1072.6 792 612" enable-background="new 0 1072.6 792 612" xml:space="preserve">
<g>
	<path fill="#231F20" d="M650.1,1146.4c-40.5,43.7-108,56.1-164.3,57.3c-6.3,0.1-14.6,4.3-17.2,10.4c-24.4,57.9-43.7,124.2-86.6,171
		c-8,8.7-7.2,24.1,1.2,29.6c69.9,46,77.4,149.7,42.3,228.9c-9.9,22.3,34.6,33.1,43.5,13.2c39.2-88.4,33.2-194.4-43.6-257.3
		c36.9-46.1,60.1-108.1,82.5-162.3c63.7-3.4,135.8-22,180.2-69.9C706.2,1147.9,664.7,1130.7,650.1,1146.4z"/>
	<path fill="#231F20" d="M325.4,1414.5c-67.3,36.2-143.1-1.3-193.2-48.7c-15.6-14.7-54.9,6.6-35.6,24.9
		c63.8,60.3,163.6,98.7,247.4,53.5C370.5,1430,348.7,1401.9,325.4,1414.5z"/>
	<path fill="#231F20" d="M277.6,1279.5c27.3-47.8,83.4-61.7,131.4-46.6c24.7,7.8,45.9-21.7,16.9-30.8c-70.8-22.3-152.5-5.7-191,62
		C222.9,1285.1,266.8,1298.5,277.6,1279.5z"/>
	<path fill="#231F20" d="M346.3,1580.7c-23.9,0-43.3,19.4-43.3,43.3c0,23.9,19.4,43.3,43.3,43.3c23.9,0,43.3-19.4,43.3-43.3
		C389.6,1600,370.2,1580.7,346.3,1580.7z"/>
	<path fill="#231F20" d="M495.5,1180.5l0.9,0.2c7.7,1.2,15.5-0.9,22.5-6c10.2-7.5,17.6-20.9,19.9-35.9c3.9-25.9-7.9-49-27-52.6
		l-0.9-0.2c-19.6-3-38.3,15.4-42.4,42C464.6,1153.9,476.4,1176.9,495.5,1180.5z M497.2,1171.5L497.2,1171.5L497.2,1171.5
		L497.2,1171.5z"/>
</g>
</svg>
