<?xml version="1.0" encoding="utf-8"?>
<!-- Generator: Adobe Illustrator 18.1.0, SVG Export Plug-In . SVG Version: 6.00 Build 0)  -->
<svg version="1.1" id="Icon" xmlns="http://www.w3.org/2000/svg" xmlns:xlink="http://www.w3.org/1999/xlink" x="0px" y="0px"
	 viewBox="2117.7 2017.4 792 612" enable-background="new 2117.7 2017.4 792 612" xml:space="preserve">
<g>
	<path fill="#231F20" d="M2593.2,2369.2c13.2,80.2-9.5,153.3-35.4,228.4c-7,20.4,34.2,23.1,40.6,4.5c26.9-78,49.8-153.6,36.2-236.7
		C2631.3,2345.2,2589.9,2349.2,2593.2,2369.2z"/>
	<path fill="#231F20" d="M2560.2,2115.8c-8.9-8.3-23.5-7.1-31.9,1.3c-2,2-5.4,5.6-5.1,10.4c5.4,76.8-20.1,156.2-53.9,224.6
		c-2.3,4.7-0.9,9.4,2.4,13.3l-127.4,132.5c-6.2,4.7-23.9,25.1-34.5,0.5c-6.3-14.8-28.8-9.2-34.2-0.9c-5.3,8.3,1.3,22.1,14.8,30.8
		c12.2,7.9,22.6,11,32.4,3l156-160.2c6.1,3.3,13.5,4.4,18.3,1.1c45.5-31.9,88.6-72.8,115.8-121.9c52.9,105.2,71.8,236,63.8,347.5
		c-1.5,20.3,40.1,21.2,41.6,0.6C2730.4,2431.9,2687.3,2234.6,2560.2,2115.8z M2591.2,2212.9c-13.7,31.8-35,60.8-59.9,86.1
		c15.3-42.8,25.8-87.9,27.1-132.4c12,14.2,23,29.5,33.1,45.6C2591.5,2212.5,2591.3,2212.7,2591.2,2212.9z"/>
	<path fill="#231F20" d="M2510.3,2112c0.6-0.4,1.2-0.9,1.7-1.3c5.7-4.9,9.1-11.9,9.7-20.2c0.9-12.1-4.2-25.9-13.7-37
		c-16.7-19.5-41-25.5-55.9-12.8c-14.5,12.4-12.8,37.6,4,57.2C2472.1,2116.7,2495.4,2122.7,2510.3,2112z"/>
</g>
</svg>
