<svg id="special-olympics-logo" xmlns="http://www.w3.org/2000/svg" viewBox="0 0 70.46 70.72"><defs><style>.cls-1{fill:#ed1c24;}</style></defs><title>Asset 1</title><g id="Layer_2" data-name="Layer 2"><g id="svg4653"><g id="layer1"><g id="g204"><g id="g206"><g id="g276"><path id="path278" class="cls-1" d="M3.63,26c1.33.57,3.1-.58,4-2.58s.47-4.07-.86-4.63-3.1.58-3.95,2.57a4.42,4.42,0,0,0,0,3.83,1.94,1.94,0,0,0,.89.81"/></g><g id="g280"><path id="path282" class="cls-1" d="M19.19,4.87a2.43,2.43,0,1,0-2.43-2.43,2.43,2.43,0,0,0,2.43,2.43"/></g><g id="g284"><path id="path286" class="cls-1" d="M19.45,10.56a70.48,70.48,0,0,0-.06,14s2-.58,2-.63a87.68,87.68,0,0,1,.16-14.18A77.28,77.28,0,0,1,29.9,13.2c.49-.52.89-1.1,1.35-1.64A82.68,82.68,0,0,0,23,7.79,54.84,54.84,0,0,1,33.91,6.43s0-1.63,0-1.63A51.46,51.46,0,0,0,22.79,6.19a46.14,46.14,0,0,1,8.55-4.77c-.21-.13-1.09-.86-1.09-.86a42.11,42.11,0,0,0-9.77,5.75c-.75.69-.66,1.07-1,4.24"/></g><g id="g288"><path id="path290" class="cls-1" d="M6.27,16.14A31.68,31.68,0,0,1,15,10.44a48.91,48.91,0,0,0-6.93,7.93c.24.34.43.72.69,1.06,4.05-5.15,4.21-5.35,7-8a58.68,58.68,0,0,0-.09,14.28,17.59,17.59,0,0,1,1.84-.62C17.33,20.42,16.81,15,18,9c.31-1.74-.29-2-6.17-2.88-.39.44-.65.64-1.53,1.47l5.11,1a29,29,0,0,0-9.64,6.47,7.59,7.59,0,0,0,.49,1"/></g><g id="g292"><path id="path294" class="cls-1" d="M51.06,4.87a2.43,2.43,0,1,0-2.43-2.43,2.43,2.43,0,0,0,2.43,2.43"/></g><g id="g296"><path id="path298" class="cls-1" d="M36.33,6.43A54.62,54.62,0,0,1,47.26,7.79,82.92,82.92,0,0,0,39,11.56c.46.54.87,1.12,1.35,1.64A77,77,0,0,1,48.7,9.71a88.26,88.26,0,0,1,.16,14.18s2,.63,2,.63a70.42,70.42,0,0,0-.05-14c-.39-3.17-.3-3.55-1-4.24A42.18,42.18,0,0,0,40,.56s-.87.73-1.09.86a45.83,45.83,0,0,1,8.56,4.77A51.39,51.39,0,0,0,36.33,4.8s0,1.63,0,1.63"/></g><g id="g300"><path id="path302" class="cls-1" d="M52.24,9c1.2,6,.68,11.39.44,16.07a18.22,18.22,0,0,1,1.84.62,58.48,58.48,0,0,0-.09-14.28c2.81,2.64,3,2.84,7,8,.25-.34.44-.72.68-1.06a49.08,49.08,0,0,0-6.93-7.93A31.65,31.65,0,0,1,64,16.14a7.32,7.32,0,0,0,.5-1,29,29,0,0,0-9.63-6.47l5.1-1c-.88-.83-1.15-1-1.53-1.47-5.89.91-6.49,1.14-6.17,2.88"/></g><g id="g304"><path id="path306" class="cls-1" d="M1.63,27.33c-.75-3,.45-7,.42-6.92-1.54,5.23-3.16,10-1,21.86A50.31,50.31,0,0,1,1.11,31.4c.23-1.39.89-2.64.53-4.07"/></g><g id="g308"><path id="path310" class="cls-1" d="M12.28,28.24a53.77,53.77,0,0,1-9,1.54c-.8,0-1,.94-1,1.28-2.36,8.55.38,20.28,7.12,27.41,0,0,.09-.14.09-.16C4.86,52.13,3.52,47.19,2.8,37.9A38,38,0,0,0,8.15,49.48a12.14,12.14,0,0,1,.94-1.74,52.33,52.33,0,0,1-5.41-11.9c.81,2.73,6.3,6.74,8.33,7.73l.32-3.18c-.21-.12-5.7-3-8.49-7.76.05,0,7.08-.95,8.73-1.66-.13-.82-.22-2.76-.29-2.74"/></g><g id="g312"><path id="path314" class="cls-1" d="M67.52,29.77a64.67,64.67,0,0,1-9.28-1.54c-.07,0-.16,1.92-.29,2.74,1.65.72,8.68,1.66,8.73,1.66C63.9,37.4,58.4,40.29,58.2,40.4l.32,3.18c2-1,7.52-5,8.33-7.74a52.59,52.59,0,0,1-5.4,11.9,12,12,0,0,1,.93,1.73A38,38,0,0,0,67.73,37.9c-.72,9.3-2.06,14.23-6.62,20.4,0,0,.08.16.08.16,6.74-7.13,9.48-18.85,7.13-27.4-.1-.33-.26-1.24-.79-1.28"/></g><g id="g316"><path id="path318" class="cls-1" d="M62.85,23c.66,2.07,2.3,3.38,3.68,2.94a1.92,1.92,0,0,0,1-.72,4.65,4.65,0,0,0,.33-3.81c-.66-2.49-2.31-3.66-3.69-3.22s-2,2.75-1.3,4.81"/></g><g id="g320"><path id="path322" class="cls-1" d="M68.4,20.42c0-.08,1.17,3.94.42,6.92-.36,1.43.31,2.68.53,4.07a34.62,34.62,0,0,1,.09,10.87c2.12-11.86.5-16.63-1-21.86"/></g><g id="g324"><path id="path326" class="cls-1" d="M40.38,33.6a5.32,5.32,0,1,0-5.32,5.32,5.32,5.32,0,0,0,5.32-5.32"/></g><g id="g328"><path id="path330" class="cls-1" d="M56.74,41.11A49.68,49.68,0,0,1,42,45.5,51.58,51.58,0,0,0,52.61,34.71a16.51,16.51,0,0,1-2-2.07A49.19,49.19,0,0,1,39.1,43.86c-1.35,1-1.75,1.31-2.14,2.25a5.78,5.78,0,0,0-.15,1.75c0,2.63-.41,22.76-.42,22.87a27,27,0,0,0,2.82-.17c.84-9,1-12.48,1-16.51,0-1.46.07-2.64.07-2.76a85.82,85.82,0,0,0,11.7,5c.23-.28,1.7-2.62,1.76-2.6-3.68-1.68-7.44-3.09-11-4.89,5.46-1.05,9.48-2,14.34-4.51.08,0-.41-3.13-.32-3.18"/></g><g id="g332"><path id="path334" class="cls-1" d="M33.72,47.85a5.82,5.82,0,0,0-.15-1.75c-.39-.93-.79-1.26-2.14-2.25A49.38,49.38,0,0,1,20,32.64a16.76,16.76,0,0,1-2,2.07A51.48,51.48,0,0,0,28.5,45.5a49.62,49.62,0,0,1-14.72-4.39c.09,0-.4,3.13-.32,3.17,4.86,2.54,8.89,3.46,14.34,4.51-3.61,1.8-7.37,3.21-11.05,4.89.06,0,1.53,2.31,1.76,2.6a85.21,85.21,0,0,0,11.7-5c0,.13.07,1.31.07,2.76,0,4,.19,7.54,1,16.51a27,27,0,0,0,2.82.17c0-.11-.44-20.23-.42-22.87"/></g><g id="g336"><path id="path338" class="cls-1" d="M26.28,68h-.52V67h.79c.34,0,.69.05.69.48s-.57.5-1,.5m1.33-.49c0-.46-.25-.73-1-.73H25.43v2.76h.34V68.24h.62l.79,1.28h.41l-.83-1.28c.49,0,.87-.21.87-.75"/></g><g id="g340"><path id="path342" class="cls-1" d="M26.35,70.28a2.15,2.15,0,1,1,2.08-2.15,2.07,2.07,0,0,1-2.08,2.15m0-4.62a2.47,2.47,0,1,0,2.47,2.47,2.48,2.48,0,0,0-2.47-2.47"/></g></g></g></g></g></g></svg>
