<?xml version="1.0" encoding="UTF-8" standalone="no"?>
<!-- Created with Inkscape (http://www.inkscape.org/) -->

<svg
   xmlns:dc="http://purl.org/dc/elements/1.1/"
   xmlns:cc="http://creativecommons.org/ns#"
   xmlns:rdf="http://www.w3.org/1999/02/22-rdf-syntax-ns#"
   xmlns:svg="http://www.w3.org/2000/svg"
   xmlns="http://www.w3.org/2000/svg"
   xmlns:sodipodi="http://sodipodi.sourceforge.net/DTD/sodipodi-0.dtd"
   xmlns:inkscape="http://www.inkscape.org/namespaces/inkscape"
   width="205"
   height="75"
   id="svg4653"
   version="1.1"
   inkscape:version="0.48.4 r9939"
   sodipodi:docname="New document 3">
  <defs
     id="defs4655">
    <clipPath
       clipPathUnits="userSpaceOnUse"
       id="clipPath208">
      <path
         inkscape:connector-curvature="0"
         d="m 1370.942,25.446 182.556,0 0,96.549 -182.556,0 0,-96.549 z"
         id="path210" />
    </clipPath>
  </defs>
  <sodipodi:namedview
     id="base"
     pagecolor="#ffffff"
     bordercolor="#666666"
     borderopacity="1.0"
     inkscape:pageopacity="0.0"
     inkscape:pageshadow="2"
     inkscape:zoom="1"
     inkscape:cx="159.04417"
     inkscape:cy="0.58272948"
     inkscape:document-units="px"
     inkscape:current-layer="layer1"
     showgrid="false"
     fit-margin-top="0"
     fit-margin-left="0"
     fit-margin-right="0"
     fit-margin-bottom="0"
     inkscape:window-width="1024"
     inkscape:window-height="714"
     inkscape:window-x="-4"
     inkscape:window-y="-4"
     inkscape:window-maximized="1" />
  <metadata
     id="metadata4658">
    <rdf:RDF>
      <cc:Work
         rdf:about="">
        <dc:format>image/svg+xml</dc:format>
        <dc:type
           rdf:resource="http://purl.org/dc/dcmitype/StillImage" />
        <dc:title></dc:title>
      </cc:Work>
    </rdf:RDF>
  </metadata>
  <g
     inkscape:label="Layer 1"
     inkscape:groupmode="layer"
     id="layer1"
     transform="translate(-265.09647,-518.43666)">
    <g
       id="g204"
       transform="matrix(1.25,0,0,-1.25,-1467.9305,639.92691)">
      <g
         id="g206"
         clip-path="url(#clipPath208)">
        <g
           id="g212"
           transform="translate(1448.4287,75.376)">
          <path
             d="m 0,0 c -0.06,-0.571 0.072,-0.855 0.748,-0.855 l 2.05,0 c 1.389,0 1.79,0.176 2.327,0.41 l -0.814,-2.048 -6.501,0 c -1.923,0 -2.34,1.019 -2.027,2.599 0.258,1.298 0.373,1.781 0.778,3.157 0.477,1.623 1.412,2.614 3.336,2.614 l 6.539,0 L 6.291,3.794 C 6.045,4.097 5.439,4.24 4.422,4.24 l -2.402,0 C 1.343,4.24 1.11,4.025 0.844,3.384 0.521,2.601 0.103,0.95 0,0"
             style="fill:#59564b;fill-opacity:1;fill-rule:nonzero;stroke:none"
             id="path214"
             inkscape:connector-curvature="0" />
        </g>
        <g
           id="g216"
           transform="translate(1424.2035,74.529)">
          <path
             d="M 0,0 1.309,0 C 1.986,0 2.22,0.214 2.485,0.855 2.808,1.637 3.229,3.287 3.327,4.238 3.389,4.809 3.257,5.095 2.579,5.095 l -0.681,0 -0.205,-0.008 -0.43,0 C 0.853,5.087 0.631,4.908 0.515,4.445 L -0.434,0.634 C -0.55,0.168 -0.424,0.002 -0.016,0.002 L 0,0 z M 0.62,6.724 0.629,5.833 c 0.455,0.608 0.739,0.891 1.326,0.891 l 3.545,0 c 1.925,0 2.37,-1.067 1.989,-2.601 L 6.698,0.953 C 6.316,-0.578 5.34,-1.646 3.414,-1.646 l -3.296,0 c -0.763,0 -0.858,0.48 -0.881,0.82 l -0.034,0 -0.605,-2.423 c -0.212,-0.856 -0.146,-1.23 -0.035,-1.567 l -4.559,0 2.485,9.973 c 0.213,0.853 0.147,1.228 0.035,1.567 l 4.096,0 z"
             style="fill:#59564b;fill-opacity:1;fill-rule:nonzero;stroke:none"
             id="path218"
             inkscape:connector-curvature="0" />
        </g>
        <g
           id="g220"
           transform="translate(1440.0439,78.9384)">
          <path
             d="m 0,0 -0.284,-1.14 -3.077,-0.003 c 0.108,0.374 0.219,0.715 0.325,0.965 0.262,0.64 0.496,0.855 1.176,0.855 l 1.423,0 C 0.027,0.677 0.121,0.482 0,0 m 2.311,2.313 0,0.002 -0.061,0 -6.233,0 -0.161,0 -10e-4,-0.006 C -5.957,2.254 -6.858,1.276 -7.32,-0.299 c -0.406,-1.377 -0.521,-1.86 -0.778,-3.158 -0.303,-1.534 0.085,-2.536 1.87,-2.595 l -0.002,-0.003 0.161,0 6.5,0 1.709,0 0.82,1.993 C 2.206,-4.364 1.766,-4.417 0.963,-4.417 l -2.046,0 -1.996,0 c -0.126,0 -0.244,0.011 -0.356,0.029 -0.409,0.081 -0.496,0.355 -0.447,0.826 0.026,0.227 0.069,0.496 0.125,0.782 l 7.161,0 0.639,2.566 C 4.475,1.511 4.144,2.295 2.311,2.313"
             style="fill:#59564b;fill-opacity:1;fill-rule:nonzero;stroke:none"
             id="path222"
             inkscape:connector-curvature="0" />
        </g>
        <g
           id="g224"
           transform="translate(1461.6356,84.2824)">
          <path
             d="m 0,0 -0.551,-2.21 -4.134,0 L -4.135,0 0,0 z m -5.401,-4.951 c 0.288,1.157 0.159,1.495 0.015,1.922 l 4.667,0 -1.61,-6.449 c -0.286,-1.156 -0.157,-1.494 -0.014,-1.921 l -5.131,0 c 0.357,0.427 0.654,0.765 0.944,1.921 l 1.129,4.527 z"
             style="fill:#59564b;fill-opacity:1;fill-rule:nonzero;stroke:none"
             id="path226"
             inkscape:connector-curvature="0" />
        </g>
        <g
           id="g228"
           transform="translate(1468.2679,76.9079)">
          <path
             d="m 0,0 -1.74,0 c -0.647,-0.018 -0.863,0.001 -1.096,-0.685 0,0 -0.159,-0.368 -0.215,-0.936 -0.052,-0.566 0.078,-0.749 0.714,-0.766 l 0.979,0 c 0.658,0 0.919,0.124 1.188,1.194 L 0.098,-0.119 0.137,0.05 C 0.137,0.05 0.102,0 0,0 m 2.6,4.345 c 1.78,0 2.619,-0.782 2.03,-3.153 L 3.72,-2.459 C 3.507,-3.314 3.574,-3.686 3.738,-4.025 l -4.205,0 -0.009,1.033 -0.01,-0.108 c -0.398,-0.747 -0.8,-0.925 -1.94,-0.925 l -2.992,0 c -1.886,0 -2.226,0.756 -1.844,2.527 l 0.151,0.5 c 0.516,1.744 1.217,2.636 3.104,2.636 l 3.829,0 c 0.589,0 0.75,0.144 0.846,0.536 C 0.78,2.617 0.444,2.708 0.09,2.708 l -4.186,0 C -4.879,2.708 -5.298,2.6 -5.86,2.351 l 0.799,1.994 7.661,0 z"
             style="fill:#59564b;fill-opacity:1;fill-rule:nonzero;stroke:none"
             id="path230"
             inkscape:connector-curvature="0" />
        </g>
        <g
           id="g232"
           transform="translate(1475.7889,82.3588)">
          <path
             d="m 0,0 c 0.29,1.157 0.161,1.496 0.019,1.924 l 4.666,0 -2.363,-9.478 C 2.033,-8.71 2.164,-9.049 2.307,-9.475 l -5.133,0 c 0.357,0.426 0.654,0.765 0.945,1.921 L 0,0 z"
             style="fill:#59564b;fill-opacity:1;fill-rule:nonzero;stroke:none"
             id="path234"
             inkscape:connector-curvature="0" />
        </g>
        <g
           id="g236"
           transform="translate(1406.9565,75.1009)">
          <path
             d="m 0,0 c 0.182,-0.287 0.531,-0.335 1.661,-0.417 1.134,-0.081 3.158,-0.068 4.008,0 0.849,0.066 1.24,0.198 1.395,0.623 0.097,0.263 0.113,0.321 0.162,0.591 0.074,0.441 -0.132,0.77 -0.808,0.77 0,0 -0.693,-0.027 -2.922,-0.014 -2.227,0.014 -3.087,0.71 -2.811,2.511 0.08,0.525 0.224,1.17 0.571,2.302 0.588,1.893 1.749,2.823 3.843,2.823 l 7.788,0 -0.123,-2.312 c -0.255,0.269 -0.591,0.549 -1.445,0.549 l -4.549,0 C 6.093,7.426 5.745,7.23 5.582,6.818 5.439,6.46 5.398,6.279 5.385,6.033 5.367,5.601 5.622,5.449 6.3,5.449 l 3.114,0.015 c 2.678,0 2.697,-1.791 2.63,-2.479 C 11.975,2.296 11.845,1.607 11.482,0.434 10.871,-1.536 9.3,-2.272 7.762,-2.272 l -7.954,0 L 0,0 z"
             style="fill:#59564b;fill-opacity:1;fill-rule:nonzero;stroke:none"
             id="path238"
             inkscape:connector-curvature="0" />
        </g>
        <g
           id="g240"
           transform="translate(1449.3291,63.0565)">
          <path
             d="M 0,0 C 1.926,0 2.34,-1.02 2.026,-2.6 1.772,-3.896 1.658,-4.381 1.253,-5.757 0.773,-7.379 -0.164,-8.371 -2.087,-8.371"
             style="fill:#59564b;fill-opacity:1;fill-rule:nonzero;stroke:none"
             id="path242"
             inkscape:connector-curvature="0" />
        </g>
        <g
           id="g244"
           transform="translate(1462.047,57.1707)">
          <path
             d="m 0,0 c -0.062,-0.568 0.069,-0.855 0.745,-0.855 l 2.051,0 c 1.39,0 1.793,0.178 2.328,0.409 l -0.812,-2.047 -6.503,0 c -1.923,0 -2.34,1.019 -2.028,2.601 0.256,1.293 0.371,1.779 0.777,3.157 0.476,1.62 1.415,2.613 3.34,2.613 l 6.535,0 L 6.287,3.794 C 6.042,4.098 5.439,4.24 4.424,4.24 l -2.408,0 C 1.341,4.24 1.105,4.023 0.842,3.385 0.517,2.603 0.098,0.953 0,0"
             style="fill:#59564b;fill-opacity:1;fill-rule:nonzero;stroke:none"
             id="path246"
             inkscape:connector-curvature="0" />
        </g>
        <g
           id="g248"
           transform="translate(1443.8101,56.3247)">
          <path
             d="M 0,0 1.312,0 C 1.989,0 2.22,0.216 2.484,0.854 2.809,1.637 3.228,3.288 3.328,4.239 3.39,4.807 3.257,5.092 2.578,5.092 l -0.678,0 -0.206,-0.006 -0.427,0 C 0.856,5.086 0.633,4.906 0.518,4.444 L -0.432,0.633 C -0.547,0.169 -0.425,0.001 -0.014,0.001 L 0,0 z M 0.624,6.724 0.633,5.833 c 0.453,0.606 0.739,0.891 1.326,0.891 l 3.544,0 c 1.926,0 2.368,-1.07 1.986,-2.6 L 6.701,0.954 C 6.318,-0.579 5.339,-1.647 3.416,-1.647 l -3.294,0 c -0.767,0 -0.862,0.482 -0.883,0.82 l -0.037,0 -0.603,-2.424 C -1.615,-4.106 -1.547,-4.48 -1.437,-4.818 l -4.559,0 2.489,9.974 c 0.21,0.856 0.144,1.23 0.033,1.568 l 4.098,0 z"
             style="fill:#59564b;fill-opacity:1;fill-rule:nonzero;stroke:none"
             id="path250"
             inkscape:connector-curvature="0" />
        </g>
        <g
           id="g252"
           transform="translate(1404.4054,64.1529)">
          <path
             d="m 0,0 c 0.287,1.159 0.158,1.496 0.016,1.924 l 4.666,0 -2.36,-9.476 C 2.032,-8.709 2.162,-9.047 2.305,-9.475 l -5.129,0 c 0.355,0.428 0.654,0.766 0.942,1.923 L 0,0 z"
             style="fill:#59564b;fill-opacity:1;fill-rule:nonzero;stroke:none"
             id="path254"
             inkscape:connector-curvature="0" />
        </g>
        <g
           id="g256"
           transform="translate(1410.8286,54.6591)">
          <path
             d="m 0,0 c -1.991,0 -2.424,1.093 -2.038,3.044 l 0.847,3.361 c 0.29,1.159 0.159,1.536 0.017,1.965 l 4.667,0 L 2.002,2.386 C 1.911,2.011 2.053,1.637 2.511,1.637 l 1.548,0 c 0.358,0 0.558,0.235 0.677,0.711 L 5.841,6.783 C 6.103,7.838 6.037,7.996 5.898,8.37 l 4.541,0 -2.284,-9.156 C 7.764,-2.369 6.761,-3.172 5.229,-3.172 l -8.245,0 0.188,2.048 c 0.344,-0.196 0.717,-0.411 1.715,-0.411 l 3.903,0 c 0.805,0 1.071,0.377 1.168,0.769 l 0.342,1.477 -0.005,0 C 3.964,0.176 3.585,0 2.758,0 L 0,0 z"
             style="fill:#59564b;fill-opacity:1;fill-rule:nonzero;stroke:none"
             id="path258"
             inkscape:connector-curvature="0" />
        </g>
        <g
           id="g260"
           transform="translate(1426.4602,63.0487)">
          <path
             d="m 0,0 -0.146,-1.015 0.006,0 C 0.075,-0.644 0.448,0 1.229,0 l 3.757,0 c 1.013,0 1.2,-0.394 1.262,-0.91 l 0.01,0 C 6.413,-0.57 6.715,0 7.428,0 l 2.885,0 c 1.389,0 2.448,-0.391 1.731,-3.277 l -0.793,-3.171 c -0.288,-1.156 -0.158,-1.495 -0.015,-1.923 l -4.773,0 c 0.355,0.428 0.655,0.767 0.943,1.923 l 1.05,4.205 c 0.113,0.452 -0.142,0.605 -0.367,0.605 l -1.39,0 c -0.323,0 -0.562,-0.18 -0.669,-0.605 L 4.984,-6.448 C 4.694,-7.604 4.823,-7.943 4.966,-8.371 l -4.774,0 c 0.356,0.428 0.655,0.767 0.944,1.923 l 1.048,4.205 c 0.071,0.2 -0.066,0.605 -0.365,0.605 l -1.391,0 c -0.321,0 -0.56,-0.18 -0.668,-0.605 l -1.047,-4.205 c -0.29,-1.156 -0.161,-1.495 -0.017,-1.923 l -4.773,0 c 0.356,0.428 0.655,0.767 0.943,1.923 l 1.129,4.524 c 0.289,1.157 0.159,1.497 0.016,1.924 L 0,0 z"
             style="fill:#59564b;fill-opacity:1;fill-rule:nonzero;stroke:none"
             id="path262"
             inkscape:connector-curvature="0" />
        </g>
        <g
           id="g264"
           transform="translate(1458.5238,66.0774)">
          <path
             d="m 0,0 -0.552,-2.21 -4.132,0 L -4.131,0 0,0 z m -5.401,-4.953 c 0.288,1.158 0.159,1.497 0.014,1.924 l 4.668,0 -1.604,-6.447 c -0.29,-1.157 -0.16,-1.495 -0.018,-1.924 l -5.131,0 c 0.355,0.429 0.652,0.767 0.942,1.924 l 1.129,4.523 z"
             style="fill:#59564b;fill-opacity:1;fill-rule:nonzero;stroke:none"
             id="path266"
             inkscape:connector-curvature="0" />
        </g>
        <g
           id="g268"
           transform="translate(1477.2458,60.3955)">
          <path
             d="M 0,0 C 1.945,0 2.437,-1.209 2.234,-2.235 L 1.867,-3.553 C 1.597,-4.635 0.662,-5.788 -1.23,-5.788 l -7.899,0 0.183,2.038 c 0.687,-0.361 1.033,-0.488 2.529,-0.488 l 3.587,0 c 0.434,0 0.588,0.108 0.672,0.451 l 0.046,0.18 c 0.086,0.343 -0.015,0.613 -0.448,0.613 l -3.316,0 c -1.949,0 -2.386,1.099 -2.181,2.144 l 0.412,1.371 c 0.322,1.298 1.601,2.164 3.228,2.164 l 7.315,0 -0.166,-2.11 C 2.494,0.991 1.338,1.133 0.35,1.133 l -3.3,0 c -0.416,0 -0.604,-0.108 -0.654,-0.306 L -3.694,0.469 C -3.742,0.269 -3.662,0 -3.249,0 L 0,0 z"
             style="fill:#59564b;fill-opacity:1;fill-rule:nonzero;stroke:none"
             id="path270"
             inkscape:connector-curvature="0" />
        </g>
        <g
           id="g272"
           transform="translate(1397.9161,63.3305)">
          <path
             d="m 0,0 c 0.08,0.445 -0.187,0.838 -0.639,0.858 -0.621,0.029 -1.246,0.036 -1.887,0 -0.386,-0.02 -0.816,-0.167 -1.051,-0.77 -0.282,-0.73 -1.245,-4.743 -1.486,-5.976 -0.088,-0.439 0.118,-0.848 0.641,-0.882 0.627,-0.04 1.172,-0.037 1.887,0 0.424,0.023 0.913,0.33 1.063,0.802 C -1.148,-4.959 -0.094,-0.524 0,0 m -8.551,-0.601 c 0.848,2.677 1.553,3.272 3.71,3.368 2.152,0.097 5.36,0.084 7.34,0 1.738,-0.074 2.51,-1.08 2.038,-3.372 -0.466,-2.247 -0.504,-2.434 -1.174,-4.702 -0.737,-2.507 -1.562,-3.311 -3.724,-3.37 -2,-0.057 -5.115,-0.061 -7.337,0 -1.809,0.049 -2.55,1.034 -2.038,3.37 0.568,2.592 0.674,3.087 1.185,4.706"
             style="fill:#59564b;fill-opacity:1;fill-rule:nonzero;stroke:none"
             id="path274"
             inkscape:connector-curvature="0" />
        </g>
        <g
           id="g276"
           transform="translate(1495.546,74.5468)">
          <path
             d="M 0,0 C 1.063,-0.456 2.48,0.467 3.162,2.062 3.845,3.653 3.538,5.314 2.475,5.769 1.411,6.225 -0.002,5.302 -0.685,3.709 -1.173,2.567 -1.153,1.388 -0.714,0.645 -0.54,0.355 -0.3,0.129 0,0"
             style="fill:#ed1c24;fill-opacity:1;fill-rule:nonzero;stroke:none"
             id="path278"
             inkscape:connector-curvature="0" />
        </g>
        <g
           id="g280"
           transform="translate(1507.9956,91.4755)">
          <path
             d="M 0,0 C 1.074,0 1.945,0.871 1.945,1.945 1.945,3.021 1.074,3.893 0,3.893 -1.075,3.893 -1.945,3.021 -1.945,1.945 -1.945,0.871 -1.075,0 0,0"
             style="fill:#ed1c24;fill-opacity:1;fill-rule:nonzero;stroke:none"
             id="path282"
             inkscape:connector-curvature="0" />
        </g>
        <g
           id="g284"
           transform="translate(1508.2047,86.9223)">
          <path
             d="m 0,0 c -0.304,-2.5 -0.474,-7.638 -0.046,-11.173 0,0 1.606,0.467 1.604,0.504 -0.262,3.915 -0.219,7.989 0.125,11.347 3.029,-1.075 5.073,-2.015 6.672,-2.791 0.388,0.417 0.713,0.882 1.082,1.314 C 7.719,0.259 2.878,2.198 2.83,2.214 3.953,2.528 7.77,3.219 11.569,3.3 c 0.02,0 -0.03,1.307 0,1.305 C 8.051,4.708 3.152,3.626 2.672,3.492 5.063,5.275 7.437,6.333 9.516,7.308 9.348,7.412 8.645,7.994 8.645,7.994 4.201,6.174 0.859,3.418 0.833,3.395 0.235,2.842 0.308,2.538 0,0"
             style="fill:#ed1c24;fill-opacity:1;fill-rule:nonzero;stroke:none"
             id="path286"
             inkscape:connector-curvature="0" />
        </g>
        <g
           id="g288"
           transform="translate(1497.6561,82.4557)">
          <path
             d="M 0,0 C 3.472,3.154 7.073,4.613 7.019,4.563 4.241,1.966 2.6,-0.18 1.478,-1.778 1.673,-2.054 1.823,-2.357 2.027,-2.626 5.268,1.495 5.396,1.657 7.642,3.769 7.636,3.715 6.877,-0.729 7.569,-7.657 c 0,0 1.468,0.555 1.472,0.496 C 8.852,-3.422 8.432,0.913 9.392,5.693 9.644,7.081 9.164,7.267 4.453,7.997 4.145,7.644 3.934,7.486 3.229,6.82 L 7.314,6.008 C 2.537,4.059 -0.394,0.828 -0.394,0.828 -0.394,0.828 -0.035,-0.034 0,0"
             style="fill:#ed1c24;fill-opacity:1;fill-rule:nonzero;stroke:none"
             id="path290"
             inkscape:connector-curvature="0" />
        </g>
        <g
           id="g292"
           transform="translate(1533.4875,91.4755)">
          <path
             d="M 0,0 C 1.076,0 1.947,0.871 1.947,1.945 1.947,3.021 1.076,3.893 0,3.893 -1.072,3.893 -1.942,3.021 -1.942,1.945 -1.942,0.871 -1.072,0 0,0"
             style="fill:#ed1c24;fill-opacity:1;fill-rule:nonzero;stroke:none"
             id="path294"
             inkscape:connector-curvature="0" />
        </g>
        <g
           id="g296"
           transform="translate(1521.7087,90.2219)">
          <path
             d="M 0,0 C 3.802,-0.08 7.615,-0.771 8.739,-1.086 8.693,-1.102 3.853,-3.04 2.133,-4.099 2.5,-4.53 2.825,-4.995 3.215,-5.412 c 1.6,0.775 3.642,1.716 6.676,2.79 0.342,-3.358 0.385,-7.432 0.125,-11.347 -0.002,-0.037 1.598,-0.504 1.598,-0.504 0.429,3.536 0.262,8.673 -0.042,11.173 -0.309,2.539 -0.237,2.843 -0.831,3.396 -0.026,0.022 -3.37,2.779 -7.818,4.599 0,0 -0.699,-0.583 -0.871,-0.687 C 4.138,3.033 6.507,1.975 8.897,0.192 8.416,0.326 3.518,1.409 0,1.305 0.033,1.307 -0.021,0 0,0"
             style="fill:#ed1c24;fill-opacity:1;fill-rule:nonzero;stroke:none"
             id="path298"
             inkscape:connector-curvature="0" />
        </g>
        <g
           id="g300"
           transform="translate(1534.4338,88.1488)">
          <path
             d="m 0,0 c 0.962,-4.78 0.543,-9.115 0.354,-12.854 0.001,0.058 1.473,-0.496 1.473,-0.496 0.693,6.928 -0.067,11.372 -0.074,11.426 2.245,-2.112 2.372,-2.274 5.617,-6.395 0.201,0.269 0.352,0.572 0.548,0.848 -1.124,1.598 -2.765,3.744 -5.543,6.341 -0.054,0.05 3.547,-1.409 7.017,-4.563 0.037,-0.034 0.397,0.828 0.397,0.828 0,0 -2.934,3.23 -7.705,5.18 l 4.08,0.812 C 5.458,1.793 5.248,1.951 4.939,2.304 0.229,1.574 -0.252,1.388 0,0"
             style="fill:#ed1c24;fill-opacity:1;fill-rule:nonzero;stroke:none"
             id="path302"
             inkscape:connector-curvature="0" />
        </g>
        <g
           id="g304"
           transform="translate(1493.9504,73.5022)">
          <path
             d="m 0,0 c -0.6,2.378 0.358,5.595 0.339,5.532 -1.235,-4.184 -2.529,-8 -0.833,-17.487 -0.36,2.229 -0.19,7.085 0.072,8.7 C -0.241,-2.146 0.287,-1.143 0,0"
             style="fill:#ed1c24;fill-opacity:1;fill-rule:nonzero;stroke:none"
             id="path306"
             inkscape:connector-curvature="0" />
        </g>
        <g
           id="g308"
           transform="translate(1502.4661,72.7797)">
          <path
             d="m 0,0 c -2.161,-0.514 -4.977,-1.126 -7.211,-1.231 -0.638,-0.03 -0.767,-0.755 -0.84,-1.022 -1.885,-6.842 0.304,-16.224 5.697,-21.924 0,0 0.076,0.116 0.068,0.126 -3.646,4.935 -4.723,8.885 -5.297,16.321 0.004,-0.052 1.227,-4.966 4.284,-9.268 -0.037,0.05 0.642,1.252 0.748,1.388 -1.901,3.083 -3.473,6.632 -4.327,9.52 0.647,-2.187 5.042,-5.392 6.661,-6.188 l 0.256,2.544 c -0.166,0.092 -4.559,2.399 -6.795,6.21 0.043,0.004 5.662,0.756 6.985,1.329 C 0.127,-1.54 0.05,0.012 0,0"
             style="fill:#ed1c24;fill-opacity:1;fill-rule:nonzero;stroke:none"
             id="path310"
             inkscape:connector-curvature="0" />
        </g>
        <g
           id="g312"
           transform="translate(1546.6628,71.5491)">
          <path
             d="m 0,0 c -2.231,0.157 -5.261,0.716 -7.42,1.231 -0.052,0.011 -0.128,-1.54 -0.229,-2.195 1.322,-0.573 6.941,-1.326 6.982,-1.33 -2.234,-3.81 -6.629,-6.118 -6.792,-6.21 l 0.254,-2.543 c 1.622,0.795 6.015,4.001 6.662,6.188 -0.854,-2.889 -2.428,-6.437 -4.324,-9.521 0.107,-0.135 0.784,-1.338 0.747,-1.387 3.056,4.302 4.277,9.215 4.282,9.268 -0.574,-7.437 -1.649,-11.387 -5.298,-16.322 -0.008,-0.009 0.068,-0.125 0.068,-0.125 5.395,5.7 7.582,15.082 5.702,21.924 C 0.558,-0.755 0.429,-0.03 0,0"
             style="fill:#ed1c24;fill-opacity:1;fill-rule:nonzero;stroke:none"
             id="path314"
             inkscape:connector-curvature="0" />
        </g>
        <g
           id="g316"
           transform="translate(1542.9268,76.9667)">
          <path
             d="m 0,0 c 0.526,-1.653 1.844,-2.704 2.947,-2.354 0.312,0.098 0.571,0.299 0.774,0.574 0.51,0.696 0.586,1.85 0.267,3.051 C 3.459,3.261 2.14,4.2 1.038,3.849 -0.06,3.499 -0.525,1.65 0,0"
             style="fill:#ed1c24;fill-opacity:1;fill-rule:nonzero;stroke:none"
             id="path318"
             inkscape:connector-curvature="0" />
        </g>
        <g
           id="g320"
           transform="translate(1547.3658,79.034)">
          <path
             d="m 0,0 c -0.021,0.064 0.937,-3.154 0.338,-5.532 -0.289,-1.143 0.246,-2.146 0.423,-3.255 0.554,-3.512 0.433,-6.471 0.071,-8.7 C 2.526,-8 1.235,-4.184 0,0"
             style="fill:#ed1c24;fill-opacity:1;fill-rule:nonzero;stroke:none"
             id="path322"
             inkscape:connector-curvature="0" />
        </g>
        <g
           id="g324"
           transform="translate(1524.9437,68.4847)">
          <path
             d="M 0,0 C 0,2.351 -1.907,4.256 -4.256,4.256 -6.61,4.256 -8.517,2.351 -8.517,0 c 0,-2.352 1.907,-4.257 4.261,-4.257 C -1.907,-4.257 0,-2.352 0,0"
             style="fill:#ed1c24;fill-opacity:1;fill-rule:nonzero;stroke:none"
             id="path326"
             inkscape:connector-curvature="0" />
        </g>
        <g
           id="g328"
           transform="translate(1538.0381,62.4824)">
          <path
             d="m 0,0 c -5.249,-2.521 -9.123,-3.049 -11.771,-3.512 4.538,3.575 6.583,6.116 8.461,8.628 -0.346,0.282 -0.499,0.417 -1.625,1.66 -0.97,-1.332 -3.551,-4.869 -9.177,-8.974 -1.079,-0.788 -1.402,-1.05 -1.712,-1.797 -0.128,-0.31 -0.124,-0.941 -0.122,-1.401 0.014,-2.107 -0.328,-18.206 -0.335,-18.294 0.534,0.002 2.254,0.088 2.257,0.135 0.668,7.169 0.808,9.982 0.817,13.204 0,1.165 0.055,2.109 0.055,2.21 3.73,-1.903 6.26,-2.906 9.363,-3.996 0.181,0.226 1.362,2.098 1.41,2.077 -2.947,1.345 -5.956,2.472 -8.839,3.912 4.365,0.84 7.584,1.577 11.472,3.608 C 0.319,-2.505 -0.07,-0.033 0,0"
             style="fill:#ed1c24;fill-opacity:1;fill-rule:nonzero;stroke:none"
             id="path330"
             inkscape:connector-curvature="0" />
        </g>
        <g
           id="g332"
           transform="translate(1519.6169,57.0862)">
          <path
             d="m 0,0 c 0.002,0.46 0.005,1.091 -0.122,1.401 -0.31,0.747 -0.634,1.009 -1.714,1.797 -5.624,4.105 -8.203,7.643 -9.177,8.974 -1.126,-1.242 -1.279,-1.378 -1.624,-1.66 1.878,-2.512 3.922,-5.053 8.464,-8.628 -2.652,0.463 -6.527,0.991 -11.773,3.512 0.07,-0.033 -0.319,-2.504 -0.256,-2.54 3.887,-2.031 7.112,-2.768 11.475,-3.608 -2.885,-1.44 -5.895,-2.567 -8.84,-3.912 0.047,0.021 1.228,-1.85 1.409,-2.077 3.107,1.09 5.634,2.093 9.361,3.997 0,-0.102 0.057,-1.046 0.057,-2.21 0.01,-3.223 0.149,-6.036 0.816,-13.205 0.004,-0.047 1.723,-0.133 2.258,-0.135 C 0.326,-18.206 -0.014,-2.107 0,0"
             style="fill:#ed1c24;fill-opacity:1;fill-rule:nonzero;stroke:none"
             id="path334"
             inkscape:connector-curvature="0" />
        </g>
        <g
           id="g336"
           transform="translate(1513.6683,40.9934)">
          <path
             d="m 0,0 -0.413,0 0,0.783 0.631,0 C 0.491,0.783 0.773,0.741 0.773,0.396 0.773,-0.052 0.314,0 0,0 m 1.066,0.391 c 0,0.366 -0.198,0.585 -0.783,0.585 l -0.967,0 0,-2.21 0.271,0 0,1.021 0.496,0 0.632,-1.021 0.324,0 -0.667,1.021 c 0.39,0.008 0.694,0.17 0.694,0.604"
             style="fill:#ed1c24;fill-opacity:1;fill-rule:nonzero;stroke:none"
             id="path338"
             inkscape:connector-curvature="0" />
        </g>
        <g
           id="g340"
           transform="translate(1513.7209,39.1461)">
          <path
             d="m 0,0 c -0.967,0 -1.672,0.751 -1.672,1.72 0,0.963 0.705,1.713 1.672,1.713 0.962,0 1.661,-0.75 1.661,-1.713 C 1.661,0.751 0.962,0 0,0 m 0,3.695 c -1.098,0 -1.985,-0.888 -1.985,-1.975 0,-1.095 0.887,-1.983 1.985,-1.983 1.093,0 1.974,0.888 1.974,1.983 0,1.087 -0.881,1.975 -1.974,1.975"
             style="fill:#ed1c24;fill-opacity:1;fill-rule:nonzero;stroke:none"
             id="path342"
             inkscape:connector-curvature="0" />
        </g>
      </g>
    </g>
  </g>
</svg>
