<?xml version="1.0" encoding="utf-8"?>
<!-- Generator: Adobe Illustrator 18.1.0, SVG Export Plug-In . SVG Version: 6.00 Build 0)  -->
<svg version="1.1" id="Icon" xmlns="http://www.w3.org/2000/svg" xmlns:xlink="http://www.w3.org/1999/xlink" x="0px" y="0px"
	 viewBox="1090.2 3024.1 792 612" enable-background="new 1090.2 3024.1 792 612" xml:space="preserve">
<g>
	<path fill="#231F20" d="M1625.4,3133.7c6.7,4.1,14.7,5.2,23.2,3.2c12.3-2.9,24.5-12.5,32.5-25.6c8.4-13.8,11.2-29.6,7.6-42.2
		c-2.2-7.7-6.7-13.7-12.9-17.5c-17.1-10.5-41.5-0.6-55.7,22.4c-8.4,13.7-11.2,29.5-7.6,42.2
		C1614.7,3123.9,1619.2,3129.9,1625.4,3133.7z"/>
	<path fill="#231F20" d="M1743.8,3262.9c-43.9,12.6-81.3,10.7-103-33.2c-7.9-15.9-11.9-35-12.7-52.8c-0.8-18.9-34.9-23.6-44-9.2
		c-37.5,59-74.9,118.1-112.3,177.1c-4.6,7.2-0.6,17.2,6.5,21.3c45.2,26.1,93.8,55.2,118.2,102.8c20.4,39.8,29,88.6,32.5,133
		c1.8,21.9,47.9,25.1,45.9,0.3c-3.9-48.6-15.4-97.6-35.4-142.1c-22.3-49.4-71.4-82.6-117.5-109.8c24.6-38.8,49.2-77.5,73.8-116.3
		c27.7,58.7,94,83.3,165,62.9C1790.1,3288.5,1767,3256.2,1743.8,3262.9z"/>
	<path fill="#231F20" d="M1433.2,3386.3c-11.4,13.7-25.4,25-40.2,34.8c-55.2,36.3-106.2,10.4-145.1-36.4
		c-13.6-16.4-58.6-6.8-41.8,13.3c41,49.4,97.1,89.1,164.5,72.7c38.7-9.4,75.4-32.4,101-63.1
		C1488.9,3386.8,1447.1,3369.5,1433.2,3386.3z"/>
	<path fill="#231F20" d="M1417.9,3197.8c24.3-47.7,67.7-62.6,111.5-30.5c17.9,13.1,55.9-7.9,32.5-25.1
		c-20.9-15.3-47.5-25.2-73.3-27.3c-54.5-4.5-92.3,28.3-115.9,74.7C1361.8,3211,1407.9,3217.4,1417.9,3197.8z"/>
</g>
</svg>
